<?xml version="1.0" encoding="UTF-8"?>
<svg fill="#000000" width="300" height="300" version="1.1" viewBox="0 0 100 100" xmlns="http://www.w3.org/2000/svg">
 <path d="m46 63c0 4.3906 1.4883 8.4414 4 11.648-3.4688 4.4727-8.8984 7.3516-15 7.3516-10.488 0-19-8.5117-19-19 0-9.6094 7.1484-17.559 16.422-18.82 2.5117 6.1719 8.1797 10.719 15 11.641-0.92188 2.2109-1.4219 4.6406-1.4219 7.1797zm1.4219-7.1797c0.83984 0.12109 1.6992 0.17969 2.5781 0.17969s1.7383-0.058594 2.5781-0.17969c-0.64844-1.6211-1.5195-3.1211-2.5781-4.4688-1.0586 1.3477-1.9297 2.8477-2.5781 4.4688zm20.156-11.641c-2.5117 6.1719-8.1797 10.719-15 11.641 0.92188 2.2109 1.4219 4.6406 1.4219 7.1797 0 4.3906-1.4883 8.4414-4 11.648 3.4688 4.4727 8.8984 7.3516 15 7.3516 10.488 0 19-8.5117 19-19 0-9.6094-7.1484-17.559-16.422-18.82zm-17.578 7.1719c3.4688-4.4727 8.8984-7.3516 15-7.3516 0.87891 0 1.7383 0.058594 2.5781 0.17969 0.92188-2.2109 1.4219-4.6406 1.4219-7.1797 0-10.488-8.5117-19-19-19s-19 8.5117-19 19c0 2.5391 0.5 4.9688 1.4219 7.1797 0.83984-0.12109 1.6992-0.17969 2.5781-0.17969 6.1016 0 11.531 2.8789 15 7.3516z"/>
</svg>
